<svg xmlns="http://www.w3.org/2000/svg" viewBox="0 0 468.293 468.293"><path fill="#3ea69b" d="M356.368 158.145l-14.618-14.618 44.098-44.097 14.618 14.618z"/><path d="M409.359 141.352l-50.832-50.833a5.646 5.646 0 0 1-.612-7.266c4.828-6.822 15.024-20.082 21.335-20.082 20.314 0 57.457 37.143 57.457 57.458 0 6.312-13.26 16.508-20.082 21.335a5.646 5.646 0 0 1-7.266-.612z" fill="#44c4a1"/><path fill="#3ea69b" d="M67.838 114.048l14.619-14.619 44.097 44.098-14.618 14.618z"/><path d="M58.934 141.352l50.832-50.833a5.646 5.646 0 0 0 .612-7.266c-4.828-6.822-15.024-20.082-21.335-20.082-20.314 0-57.457 37.143-57.457 57.458 0 6.312 13.26 16.508 20.082 21.335a5.646 5.646 0 0 0 7.266-.612z" fill="#44c4a1"/><path fill="#d5d6db" d="M216.913 37.182h34.46v60.816h-34.46z"/><circle cx="234.146" cy="275.325" r="192.968" fill="#f6c358"/><circle cx="234.146" cy="275.325" r="164.67" fill="#fcd462"/><path d="M234.233 419.406a145.09 145.09 0 0 1-28.028-2.709l2.138-10.872a134.08 134.08 0 0 0 25.804 2.5l.133 10.017-.003 1.063-.044.001zm28.152-2.763l-2.165-10.872a132.559 132.559 0 0 0 24.927-7.574l4.254 10.234a143.632 143.632 0 0 1-27.016 8.212zm-83.215-8.096a143.772 143.772 0 0 1-24.908-13.297l6.153-9.216a133.012 133.012 0 0 0 22.987 12.269l-4.232 10.244zm135.112-13.462l-6.169-9.206a133.91 133.91 0 0 0 20.129-16.557l7.842 7.831a144.763 144.763 0 0 1-21.802 17.932zm-181.859-17.718a145.313 145.313 0 0 1-17.954-21.777l9.2-6.186a134.213 134.213 0 0 0 16.579 20.116l-7.825 7.847zm221.568-22.032l-9.211-6.164a132.98 132.98 0 0 0 12.293-22.976l10.239 4.243a144.21 144.21 0 0 1-13.321 24.897zm-252.894-24.616a143.287 143.287 0 0 1-8.237-27.01l10.867-2.17a132.285 132.285 0 0 0 7.598 24.916l-10.228 4.264zm274.395-27.305l-10.872-2.148a134.118 134.118 0 0 0 2.527-25.942v-.582h11.083v.582a145.032 145.032 0 0 1-2.738 28.09zm-285.43-27.798v-.292c0-9.349.901-18.701 2.679-27.792l10.878 2.127a134.15 134.15 0 0 0-2.473 25.666l-11.084.291zm274.45-26.783a132.271 132.271 0 0 0-7.655-24.897l10.223-4.286a143.138 143.138 0 0 1 8.294 26.991l-10.862 2.192zM111.114 224.71l-10.25-4.221a143.898 143.898 0 0 1 13.267-24.924l9.227 6.142a132.67 132.67 0 0 0-12.244 23.003zm233.355-23.701a134.29 134.29 0 0 0-16.622-20.078l7.809-7.863a145.18 145.18 0 0 1 17.997 21.739l-9.184 6.202zm-204.615-19.485l-7.858-7.815a145.114 145.114 0 0 1 21.764-17.978l6.191 9.195a133.751 133.751 0 0 0-20.097 16.598zm167.79-17.066a132.769 132.769 0 0 0-23.016-12.22l4.21-10.255a144.211 144.211 0 0 1 24.938 13.243l-6.132 9.232zM182.886 152.56l-4.275-10.228a143.553 143.553 0 0 1 26.997-8.264l2.186 10.867a132.019 132.019 0 0 0-24.908 7.625zm76.788-7.791a134.113 134.113 0 0 0-25.528-2.446l-.306-7.728.203-3.355c9.187.041 18.695.89 27.746 2.652l-2.115 10.877z" fill="#f6c358"/><path d="M268.037 275.323c11.605-8.832 18.405-22.378 18.405-37.105 0-25.78-20.974-46.754-46.754-46.754h-5.256v-19.297h-9.648v19.297h-11.257v-19.297h-9.649v19.297h-22.027v19.297h12.379v54.914h-12.379v19.297h12.379v54.914h-12.379v19.297h22.027v19.297h9.649v-19.297h11.257v19.297h9.648v-19.297h5.256c25.78 0 46.754-20.974 46.754-46.754 0-14.728-6.8-28.274-18.405-37.106zm-28.349 64.562h-26.161v-54.914h26.161c15.139 0 27.457 12.318 27.457 27.457 0 15.139-12.318 27.457-27.457 27.457zm0-74.211h-26.161V210.76h26.161c15.139 0 27.457 12.318 27.457 27.457s-12.318 27.457-27.457 27.457z" fill="#dc8744"/><path d="M285.67 58.851H182.623a6.244 6.244 0 0 1-6.244-6.244V6.244A6.245 6.245 0 0 1 182.623 0H285.67a6.244 6.244 0 0 1 6.244 6.244v46.363a6.245 6.245 0 0 1-6.244 6.244z" fill="#ebf0f3"/><path d="M227.172 10.827h13.949v37.201h-13.949zm33.698 0h13.949v37.201H260.87zm-67.371 0h13.949v37.201h-13.949z" fill="#64798a"/></svg>