<svg xmlns="http://www.w3.org/2000/svg" viewBox="0 0 504.124 504.124"><path d="M441.108 244.578l-1.182-16.148 10.24-10.24c45.292-45.292 45.292-119.335 0-164.234-45.292-45.292-118.942-45.292-164.234 0l-10.24 10.24c-5.12-.788-10.634-1.182-16.148-1.182l17.723-17.723c50.018-50.018 131.545-50.412 181.563 0 50.018 50.018 50.018 131.545 0 181.563.001.001-17.722 17.724-17.722 17.724zM228.825 64.591l-10.24-10.24c-45.292-45.292-119.335-45.292-164.234 0-45.686 44.898-45.686 118.942 0 164.234l10.24 10.24c-.788 5.12-1.182 10.634-1.182 16.148L45.686 227.25c-50.018-50.018-50.412-131.545 0-181.563 50.018-50.018 131.545-50.018 181.563 0l17.723 17.723c-5.514-.001-11.027.393-16.147 1.181zM63.015 259.545l1.182 16.148-10.24 10.24c-45.292 45.292-45.292 119.335-.394 164.233 45.292 45.292 118.942 45.292 164.234 0l10.24-10.24c5.12.788 10.634 1.182 16.148 1.182l-17.723 17.723c-50.018 50.018-131.545 50.412-181.563.394s-50.019-131.545.393-181.564l17.723-18.116zm212.283 179.987l10.24 10.24c45.292 45.292 119.335 45.292 164.234 0 45.292-45.292 45.292-118.942-.394-164.234l-10.24-10.24c.788-5.12 1.182-10.634 1.182-16.148l17.723 17.723c50.018 50.018 50.412 131.545.394 181.563s-131.545 50.018-181.563-.394l-17.723-17.723c5.514.395 11.027.001 16.147-.787z" fill="#e4e7e7"/><path d="M252.062 0C113.034 0 0 113.034 0 252.062s112.64 252.062 252.062 252.062c139.028 0 252.062-113.034 252.062-252.062S391.089 0 252.062 0zm0 378.092c-69.711 0-126.031-56.32-126.031-126.031s56.32-126.031 126.031-126.031 126.031 56.32 126.031 126.031-56.321 126.031-126.031 126.031z" fill="#e2574c"/><path d="M252.062 95.705c-86.252 0-156.357 70.105-156.357 156.357s70.105 156.357 156.357 156.357 156.357-70.105 156.357-156.357S338.314 95.705 252.062 95.705zm0 282.387c-69.711 0-126.031-56.32-126.031-126.031s56.32-126.031 126.031-126.031 126.031 56.32 126.031 126.031-56.321 126.031-126.031 126.031z" fill="#d95449"/><path d="M252.062 35.446c-119.729 0-216.615 96.886-216.615 216.615s96.886 216.615 216.615 216.615 216.615-96.886 216.615-216.615S371.791 35.446 252.062 35.446zm0 417.477c-111.065 0-200.862-89.797-200.862-200.862S140.997 51.2 252.062 51.2s200.862 89.797 200.862 200.862-89.798 200.861-200.862 200.861z" fill="#e5685e"/><path d="M193.378 363.52c-22.843-11.815-41.354-30.72-53.169-53.169l-90.978 91.372c14.966 20.086 32.689 38.203 53.169 53.169l90.978-91.372zm116.973-223.311a123.765 123.765 0 0 1 53.169 53.169l91.372-90.978c-14.966-20.086-33.083-38.203-53.169-53.169l-91.372 90.978zM49.231 102.4l90.978 90.978a123.765 123.765 0 0 1 53.169-53.169L102.4 49.231C82.314 64.197 64.197 82.314 49.231 102.4zm405.661 299.323l-90.978-90.978a123.765 123.765 0 0 1-53.169 53.169l90.978 90.978c20.086-14.966 38.203-33.083 53.169-53.169z" fill="#efefef"/><path d="M332.8 118.154l-22.055 22.055a123.765 123.765 0 0 1 53.169 53.169l22.055-22.055c-13.391-21.661-31.507-40.172-53.169-53.169zM140.209 310.351L118.154 332.8c12.997 21.662 31.508 39.778 53.169 53.169l22.055-22.055a131.41 131.41 0 0 1-53.169-53.563zm170.536 53.563l22.055 22.055c21.662-12.997 39.778-31.508 53.169-53.169l-22.055-22.055a132.855 132.855 0 0 1-53.169 53.169zM193.772 140.603l-22.449-22.449a163.324 163.324 0 0 0-53.169 53.169l22.055 22.055c12.209-22.449 30.72-40.96 53.563-52.775z" fill="#e6e6e6"/><path d="M85.858 365.095l-11.422 11.422c14.572 20.48 32.295 38.597 53.169 53.169l11.422-11.422c-20.873-14.572-38.99-32.295-53.169-53.169zm332.407 0a200.795 200.795 0 0 1-53.169 53.169l11.422 11.422a227.13 227.13 0 0 0 53.169-53.169l-11.422-11.422zM85.858 139.028a200.795 200.795 0 0 1 53.169-53.169L128 74.831A227.13 227.13 0 0 0 74.831 128l11.027 11.028zm332.407 0l11.422-11.422a227.13 227.13 0 0 0-53.169-53.169l-11.422 11.422c20.873 14.178 38.596 32.295 53.169 53.169z" fill="#f1f1f1"/></svg>