<svg xmlns="http://www.w3.org/2000/svg" viewBox="0 0 501.85 501.85"><path d="M344.967 307.35l-38.661-1.045 1.045 38.661c1.045 62.694 53.29 113.894 115.984 115.984l38.661 1.045-1.045-38.661C458.86 360.64 407.66 308.395 344.967 307.35z" fill="#f8b64c"/><path d="M355.416 328.248l-27.167-1.045 1.045 27.167c1.045 44.931 38.661 82.547 83.592 83.592l27.167 1.045-1.045-27.167c-1.045-44.931-38.662-82.547-83.592-83.592z" fill="#ffd15c"/><path d="M501.701 304.215c-5.224-9.404-12.539-17.763-19.853-25.078-18.808-18.808-41.796-31.347-66.874-37.616-47.02-11.494-99.265 1.045-135.837 37.616s-49.11 88.816-37.616 135.837c6.269 24.033 18.808 48.065 37.616 66.873 7.314 7.314 16.718 14.629 25.078 19.853-54.335 2.09-110.759-17.763-152.555-59.559-33.437-33.437-52.245-74.188-58.514-117.029-8.359-61.649 11.494-125.388 58.514-172.408S263.464 85.831 324.068 94.19c42.841 6.269 84.637 25.078 117.029 58.514 42.841 40.752 62.694 97.177 60.604 151.511z" fill="#ff7058"/><path d="M411.84 305.26C382.583 126.583 228.983-5.074 38.811.15L1.195 1.195.15 38.811C-5.074 228.983 126.583 382.583 305.26 411.84l106.58-106.58z" fill="#f2f2f2"/><path d="M223.758 388.852c26.122 10.449 53.29 17.763 81.502 22.988l105.535-105.535c-4.18-28.212-12.539-55.38-22.988-81.502L223.758 388.852zM163.154 16.869C124.493 5.375 82.697-.895 38.811.15L1.195 1.195.15 38.811c-1.045 43.886 5.224 85.682 16.718 124.343L163.154 16.869z" fill="#40596b"/><path d="M305.26 411.84c10.449 2.09 21.943 3.135 32.392 4.18l77.322-77.322c-1.045-11.494-2.09-21.943-4.18-32.392L305.26 411.84z" fill="#f2f2f2"/><ellipse cx="174.515" cy="174.962" rx="80.456" ry="80.456" fill="#40596b"/><ellipse cx="174.515" cy="174.962" rx="56.424" ry="56.424" fill="#84dbff"/><path d="M139.122 147.481c19.853-19.853 51.2-19.853 71.053 0 18.808 18.808 19.853 49.11 2.09 68.963 1.045-1.045 2.09-1.045 2.09-2.09 21.943-21.943 21.943-57.469 0-79.412s-57.469-21.943-79.412 0-21.943 57.469 0 79.412c1.045 1.045 2.09 1.045 2.09 2.09-16.719-19.853-16.719-50.155 2.089-68.963z" fill="#54c0eb"/></svg>