<svg xmlns="http://www.w3.org/2000/svg" viewBox="0 0 100 100"><defs><style>.a{fill:#010101;}</style></defs><path class="a" d="M49.71,98.79a49,49,0,0,1-32.13-86A3.42,3.42,0,0,1,22.06,18a41.95,41.95,0,1,0,11.51-7.13A3.42,3.42,0,1,1,31,4.51,49,49,0,1,1,49.71,98.79Z"/><path class="a" d="M49.71,85.3a35.53,35.53,0,1,1,35.5-35.51,3.42,3.42,0,1,1-6.83,0A28.67,28.67,0,1,0,49.71,78.46a3.42,3.42,0,0,1,0,6.84Z"/><path class="a" d="M49.71,71.8a22,22,0,1,1,0-44,3.42,3.42,0,0,1,0,6.83A15.18,15.18,0,1,0,64.88,49.79a3.42,3.42,0,1,1,6.84,0A22,22,0,0,1,49.71,71.8Z"/></svg>